<?xml version="1.0" ?><!DOCTYPE svg  PUBLIC '-//W3C//DTD SVG 1.1//EN'  'http://www.w3.org/Graphics/SVG/1.1/DTD/svg11.dtd'><svg height="8.4666mm" style="shape-rendering:geometricPrecision; text-rendering:geometricPrecision; image-rendering:optimizeQuality; fill-rule:evenodd; clip-rule:evenodd" version="1.1" viewBox="0 0 846.66 846.66" width="8.4666mm" xml:space="preserve" xmlns="http://www.w3.org/2000/svg" xmlns:xlink="http://www.w3.org/1999/xlink"><defs><style type="text/css">
   <![CDATA[
    .fil0 {fill:black;fill-rule:nonzero}
   ]]>
  </style></defs><g id="Layer_x0020_1"><path class="fil0" d="M187.41 90.79l343.62 0 -14.51 -39.46 -381.58 0 0 663.25 31.83 0 0 -603.15c0,-11.4 9.24,-20.64 20.64,-20.64zm387.56 0l29.03 0c6.2,0 11.76,2.73 15.54,7.05l127.26 125.42c4.1,4.03 6.15,9.35 6.15,14.68l0.06 578.03c0,11.41 -9.25,20.65 -20.65,20.65l-544.95 0c-11.4,0 -20.64,-9.24 -20.64,-20.65l0 -60.1 -52.47 0c-11.4,0 -20.65,-9.24 -20.65,-20.64l0 -704.54c0,-11.41 9.25,-20.65 20.65,-20.65l416.59 0c9.31,0 17.18,6.16 19.75,14.63l24.33 66.12zm-72.78 200.8c-27.15,0 -27.15,-41.29 0,-41.29l107.54 0c27.15,0 27.15,41.29 0,41.29l-107.54 0zm0 163.16c-27.15,0 -27.15,-41.29 0,-41.29l107.54 0c27.15,0 27.15,41.29 0,41.29l-107.54 0zm0 -81.58c-27.15,0 -27.15,-41.29 0,-41.29l107.54 0c27.15,0 27.15,41.29 0,41.29l-107.54 0zm-213.47 285.55c-27.15,0 -27.15,-41.29 0,-41.29l342.33 0c27.16,0 27.16,41.29 0,41.29l-342.33 0zm-80.66 49.56l503.66 0 0 -461.79 -116.1 -114.41 -387.56 0 0 576.2zm503.66 41.29l-503.66 0 0 45.76 503.66 0 0 -45.76zm-362.24 -387.84c49.14,0 89.27,40.13 89.27,89.27l0 40.3c0,11.4 -9.25,20.65 -20.65,20.65l-137.24 0c-11.4,0 -20.64,-9.25 -20.64,-20.65l0 -40.3c0,-49.14 40.12,-89.27 89.26,-89.27zm0 41.29c-26.34,0 -47.97,21.63 -47.97,47.98l0 19.66 95.94 0 0 -19.66c0,-26.35 -21.63,-47.98 -47.97,-47.98zm0 -209.92c41.89,0 75.85,33.96 75.85,75.85 0,41.89 -33.96,75.85 -75.85,75.85 -41.89,0 -75.85,-33.96 -75.85,-75.85 0,-41.89 33.97,-75.85 75.85,-75.85zm0 41.29c-19.09,0 -34.55,15.47 -34.55,34.56 0,19.08 15.46,34.55 34.55,34.55 19.09,0 34.56,-15.46 34.56,-34.55 0,-19.09 -15.47,-34.56 -34.56,-34.56z"/></g></svg>