<?xml version="1.0" encoding="utf-8"?>
<!-- Generator: Adobe Illustrator 25.2.1, SVG Export Plug-In . SVG Version: 6.00 Build 0)  -->
<svg version="1.1" id="Layer_1" xmlns="http://www.w3.org/2000/svg" xmlns:xlink="http://www.w3.org/1999/xlink" x="0px" y="0px"
	 viewBox="0 0 512 512" style="enable-background:new 0 0 512 512;" xml:space="preserve">
<style type="text/css">
	.st0{fill:#E46A1F;}
</style>
<path class="st0" d="M256,0C114.8,0,0,114.8,0,256s114.8,256,256,256s256-114.8,256-256S397.2,0,256,0z M256,448
	c-105.9,0-192-86.1-192-192S150.1,64,256,64s192,86.1,192,192S361.9,448,256,448z M352.2,334.6c9.6,14.8,5.4,34.6-9.4,44.3
	c-5.4,3.5-11.4,5.2-17.4,5.2c-10.5,0-20.7-5.1-26.9-14.6l-59.9-92.1h-25.3V352c0,17.7-14.3,32-32,32s-32-14.3-32-32V160
	c0-17.7,14.3-32,32-32s32,14.3,32,32v53.3h27.4l59.7-73.5c11.1-13.7,31.3-15.8,45-4.7c13.7,11.1,15.8,31.3,4.7,45l-54.7,67.2
	L352.2,334.6L352.2,334.6z"/>
</svg>
